<svg width="119" height="107" viewBox="0 0 119 107" fill="none" xmlns="http://www.w3.org/2000/svg">
<path d="M18 33.8913L59.5 9.63323L101 33.8913V56.7009V80.3206L59.5 102.466L18 80.3206V56.7009V33.8913Z" stroke="#D01010" stroke-width="8"/>
<path d="M44.0156 57.1953C44.0156 51.8047 45.3828 47.5234 48.1172 44.3516C50.8516 41.1797 54.7969 39.5938 59.9531 39.5938C62.9219 39.5938 65.4375 40.0547 67.5 40.9766C69.5625 41.8984 71.0156 43.2344 71.8594 44.9844C72.4219 46.1406 72.3281 46.9219 71.5781 47.3281L68.7656 48.8281C67.7812 49.3594 66.9688 49.0625 66.3281 47.9375C65.9219 47.2188 65.1641 46.5703 64.0547 45.9922C62.9609 45.4141 61.6719 45.125 60.1875 45.125C56.9062 45.125 54.6094 46.1641 53.2969 48.2422C51.9844 50.3047 51.3281 53.2891 51.3281 57.1953C51.3281 61.1016 51.9844 64.0938 53.2969 66.1719C54.6094 68.2344 56.9062 69.2656 60.1875 69.2656C61.9531 69.2656 63.4375 68.8672 64.6406 68.0703C65.8594 67.2734 66.7031 66.5156 67.1719 65.7969C67.9375 64.625 68.75 64.3281 69.6094 64.9062L72.4219 66.7812C73.1875 67.2969 73.2656 68.0781 72.6562 69.125C71.75 70.6875 70.1953 72.0234 67.9922 73.1328C65.7891 74.2422 63.1094 74.7969 59.9531 74.7969C54.875 74.7969 50.9453 73.2109 48.1641 70.0391C45.3984 66.8672 44.0156 62.5859 44.0156 57.1953Z" fill="#D01010"/>
</svg>
